<svg width="333" height="227" xmlns="http://www.w3.org/2000/svg" xmlns:xlink="http://www.w3.org/1999/xlink" overflow="hidden"><defs><clipPath id="clip0"><rect x="0" y="0" width="333" height="227"/></clipPath></defs><g clip-path="url(#clip0)"><rect x="0" y="0" width="333" height="226.939" fill="#FFFFFF"/><path d="M155.5 169.955C155.5 145.384 179.9 125.466 210 125.466 240.1 125.466 264.5 145.384 264.5 169.955 264.5 194.525 240.1 214.443 210 214.443 179.9 214.443 155.5 194.525 155.5 169.955Z" stroke="#000000" stroke-width="1.33467" stroke-miterlimit="8" stroke-dasharray="5.33868 4.00401" fill="#FFC000" fill-rule="evenodd" fill-opacity="0.341176"/><g><g><g><path d="M14.6106 3.11374C14.6106 4.172 13.7527 5.02989 12.6945 5.02989 11.6362 5.02989 10.7783 4.172 10.7783 3.11374 10.7783 2.05548 11.6362 1.19759 12.6945 1.19759 13.7527 1.19759 14.6106 2.05548 14.6106 3.11374Z" transform="matrix(-1.00027 0 0 1 222 151.959)"/><path d="M17.5567 10.5867 15.0897 9.77236C15.0897 9.77236 13.7244 6.61071 13.6765 6.51491 13.3412 5.91611 12.7184 5.50893 11.9999 5.50893 11.7125 5.50893 11.425 5.58078 11.1855 5.70054L7.83226 7.01789C7.59274 7.1137 7.40112 7.30532 7.30532 7.54484L6.10772 10.4191C5.91611 10.8981 6.13168 11.4729 6.63467 11.6646 6.75442 11.7125 6.87418 11.7364 6.99394 11.7364 7.37717 11.7364 7.73645 11.5208 7.88016 11.1376L8.86219 8.64662 9.86817 8.26339 8.21549 16.3352 5.00594 20.2393C4.67061 20.6465 4.71852 21.2453 5.1257 21.5806 5.29336 21.7243 5.50893 21.7962 5.72449 21.7962 6.01192 21.7962 6.27539 21.6764 6.467 21.4369L9.82026 17.3651C9.91607 17.2453 9.98793 17.1016 10.0119 16.9579L10.5867 14.1795 13.1735 16.0477 13.1735 20.8381C13.1735 21.3651 13.6047 21.7962 14.1316 21.7962 14.6585 21.7962 15.0897 21.3651 15.0897 20.8381L15.0897 15.5687C15.0897 15.2573 14.946 14.9699 14.7064 14.8022L12.3831 13.1017 13.0298 9.86817 13.4849 10.922C13.6047 11.1616 13.7963 11.3532 14.0597 11.449L16.934 12.4071C17.0298 12.431 17.1256 12.455 17.2453 12.455 17.6525 12.455 18.0118 12.1915 18.1555 11.8083 18.3232 11.3053 18.0597 10.7544 17.5567 10.5867Z" transform="matrix(-1.00027 0 0 1 222 151.959)"/></g></g></g><text font-family="Calibri,Calibri_MSFontService,sans-serif" font-weight="400" font-size="13" transform="matrix(1 0 0 0.999733 10.9379 96)">AP</text><text font-family="Calibri,Calibri_MSFontService,sans-serif" font-weight="400" font-size="13" transform="matrix(1 0 0 0.999733 212.047 12)">IRS</text><g><g><g><path d="M43.0718 9.2996 3.91562 9.2996 3.91562 15.173 5.87343 15.173 5.87343 38.6668 41.114 38.6668 41.114 15.173 43.0718 15.173ZM6.85234 21.0465 11.2574 21.0465 11.2574 25.941 6.85234 25.941ZM23.0043 21.0465 23.0043 25.941 12.2363 25.941 12.2363 21.0465ZM34.7511 21.0465 34.7511 25.941 23.9832 25.941 23.9832 21.0465ZM18.1098 31.8144 18.1098 26.9199 28.8777 26.9199 28.8777 31.8144ZM6.85234 26.9199 17.1308 26.9199 17.1308 31.8144 6.85234 31.8144ZM23.0043 32.7933 23.0043 37.6879 12.2363 37.6879 12.2363 32.7933ZM23.9832 32.7933 34.7511 32.7933 34.7511 37.6879 23.9832 37.6879ZM29.8566 31.8144 29.8566 26.9199 40.1351 26.9199 40.1351 31.8144ZM35.73 25.941 35.73 21.0465 40.1351 21.0465 40.1351 25.941ZM29.8566 20.0676 29.8566 15.173 40.1351 15.173 40.1351 20.0676ZM28.8777 20.0676 18.1098 20.0676 18.1098 15.173 28.8777 15.173ZM17.1308 20.0676 6.85234 20.0676 6.85234 15.173 17.1308 15.173ZM6.85234 32.7933 11.2574 32.7933 11.2574 37.6879 6.85234 37.6879ZM35.73 37.6879 35.73 32.7933 40.1351 32.7933 40.1351 37.6879ZM4.89453 14.1941 4.89453 10.2785 42.0929 10.2785 42.0929 14.1941Z" fill="#C55A11" transform="matrix(1.02155 0 0 1 94 111.97)"/></g></g></g><g><g><g><path d="M16.9209 23.2143 17.613 22.5222C14.3651 19.2819 14.359 14.0222 17.5993 10.7743 17.6038 10.7697 17.6084 10.7652 17.613 10.7606L16.9209 10.0685C13.2908 13.6908 13.2844 19.57 16.9067 23.2001 16.9114 23.2048 16.9161 23.2096 16.9209 23.2143Z" transform="matrix(1.00027 0 0 1 28 70.981)"/><path d="M27.2992 20.4469C29.4009 18.3492 29.4042 14.9449 27.3065 12.8432 27.3041 12.8407 27.3017 12.8383 27.2992 12.8359L26.6071 13.528C28.3266 15.2437 28.3297 18.0285 26.6139 19.748 26.6117 19.7502 26.6094 19.7526 26.6071 19.7548Z" transform="matrix(1.00027 0 0 1 28 70.981)"/><path d="M20.3803 19.7548C18.6608 18.0391 18.6578 15.2543 20.3735 13.5348 20.3758 13.5325 20.3781 13.5302 20.3803 13.528L19.6882 12.8359C17.5865 14.9336 17.5832 18.3379 19.6809 20.4396 19.6834 20.442 19.6858 20.4444 19.6882 20.4469Z" transform="matrix(1.00027 0 0 1 28 70.981)"/><path d="M32.1419 25.2895 32.834 25.9816C37.9924 20.8348 38.0018 12.4807 32.8551 7.32226 32.848 7.31521 32.841 7.30817 32.834 7.30117L32.1419 7.99325C36.9181 12.7581 36.9273 20.4927 32.1625 25.2689 32.1556 25.2758 32.1487 25.2827 32.1419 25.2895Z" transform="matrix(1.00027 0 0 1 28 70.981)"/><path d="M14.8456 25.2895C10.0694 20.5247 10.0601 12.7901 14.825 8.01386 14.8318 8.00696 14.8387 8.0001 14.8456 7.99325L14.1535 7.30117C8.99506 12.448 8.98562 20.8021 14.1324 25.9605 14.1395 25.9676 14.1465 25.9746 14.1535 25.9816Z" transform="matrix(1.00027 0 0 1 28 70.981)"/><path d="M30.0666 23.2143C33.6967 19.592 33.703 13.7128 30.0808 10.0827 30.076 10.078 30.0713 10.0732 30.0666 10.0685L29.3745 10.7606C32.6224 14.0009 32.6285 19.2606 29.3882 22.5085 29.3837 22.5131 29.3791 22.5176 29.3745 22.5222Z" transform="matrix(1.00027 0 0 1 28 70.981)"/><path d="M37.6879 30.3461 23.9832 30.3461 23.9832 18.0197C24.7478 17.7494 25.1484 16.9104 24.8781 16.1459 24.6078 15.3813 23.7689 14.9806 23.0043 15.2509 22.2397 15.5212 21.839 16.3602 22.1094 17.1248 22.2572 17.5429 22.5861 17.8718 23.0043 18.0197L23.0043 30.3461 9.2996 30.3461C7.94866 30.3477 6.85395 31.4424 6.85234 32.7933L6.85234 37.6879C6.85395 39.0388 7.94866 40.1335 9.2996 40.1351L37.6879 40.1351C39.0388 40.1335 40.1335 39.0388 40.1351 37.6879L40.1351 32.7933C40.1335 31.4424 39.0388 30.3477 37.6879 30.3461ZM39.1562 37.6879C39.1562 38.4988 38.4988 39.1562 37.6879 39.1562L9.2996 39.1562C8.48863 39.1562 7.83124 38.4988 7.83124 37.6879L7.83124 32.7933C7.83124 31.9824 8.48863 31.325 9.2996 31.325L37.6879 31.325C38.4988 31.325 39.1562 31.9824 39.1562 32.7933Z" transform="matrix(1.00027 0 0 1 28 70.981)"/><path d="M13.7047 35.2406C13.7047 36.0515 13.0473 36.709 12.2363 36.709 11.4254 36.709 10.768 36.0515 10.768 35.2406 10.768 34.4296 11.4254 33.7722 12.2363 33.7722 13.0473 33.7722 13.7047 34.4296 13.7047 35.2406Z" transform="matrix(1.00027 0 0 1 28 70.981)"/><path d="M21.0465 35.2406C21.0465 35.7812 20.6082 36.2195 20.0676 36.2195 19.5269 36.2195 19.0887 35.7812 19.0887 35.2406 19.0887 34.7 19.5269 34.2617 20.0676 34.2617 20.6082 34.2617 21.0465 34.7 21.0465 35.2406Z" transform="matrix(1.00027 0 0 1 28 70.981)"/><path d="M25.941 35.2406C25.941 35.7812 25.5027 36.2195 24.9621 36.2195 24.4215 36.2195 23.9832 35.7812 23.9832 35.2406 23.9832 34.7 24.4215 34.2617 24.9621 34.2617 25.5027 34.2617 25.941 34.7 25.941 35.2406Z" transform="matrix(1.00027 0 0 1 28 70.981)"/><path d="M30.8355 35.2406C30.8355 35.7812 30.3973 36.2195 29.8566 36.2195 29.316 36.2195 28.8777 35.7812 28.8777 35.2406 28.8777 34.7 29.316 34.2617 29.8566 34.2617 30.3973 34.2617 30.8355 34.7 30.8355 35.2406Z" transform="matrix(1.00027 0 0 1 28 70.981)"/><path d="M35.73 35.2406C35.73 35.7812 35.2918 36.2195 34.7511 36.2195 34.2105 36.2195 33.7722 35.7812 33.7722 35.2406 33.7722 34.7 34.2105 34.2617 34.7511 34.2617 35.2918 34.2617 35.73 34.7 35.73 35.2406Z" transform="matrix(1.00027 0 0 1 28 70.981)"/></g></g></g><path d="M99.4637 115.232 97.9347 15.1787 99.2692 15.1583 100.798 115.212ZM95.9533 16.5434 98.5 8.49769 101.291 16.4619Z"/><path d="M0.436866-0.504228 87.9811 75.3446 87.1073 76.3531-0.436866 0.504228ZM88.2831 72.9581 92.5864 80.2174 84.7882 76.9919Z" transform="matrix(-1.00027 0 0 1 100.111 113.47)"/><path d="M100.509 113.802 287.946 116.442 287.927 117.776 100.491 115.137ZM286.639 114.422 294.609 117.203 286.564 119.758Z"/><text font-family="Calibri,Calibri_MSFontService,sans-serif" font-weight="400" font-size="13" transform="matrix(1 0 0 0.999733 221.47 170)">MU</text><path d="M166.5 43.4884 186.3 22.494 265.5 22.494 245.7 43.4884Z" stroke="#70AD47" stroke-width="0.667335" stroke-miterlimit="8" fill="#D4E8D3" fill-rule="evenodd"/><path d="M176.5 40.4892 178.9 38.4897 188.5 38.4897 186.1 40.4892Z" stroke="#D3C674" stroke-width="0.667335" stroke-miterlimit="8" fill="#FFE6CC" fill-rule="evenodd"/><path d="M194.5 40.4892 196.9 38.4897 206.5 38.4897 204.1 40.4892Z" stroke="#D3C674" stroke-width="0.667335" stroke-miterlimit="8" fill="#FFE6CC" fill-rule="evenodd"/><path d="M212.5 40.4892 214.9 38.4897 224.5 38.4897 222.1 40.4892Z" stroke="#D3C674" stroke-width="0.667335" stroke-miterlimit="8" fill="#FFE6CC" fill-rule="evenodd"/><path d="M230.5 41.4889 232.9 38.4897 242.5 38.4897 240.1 41.4889Z" stroke="#D3C674" stroke-width="0.667335" stroke-miterlimit="8" fill="#FFE6CC" fill-rule="evenodd"/><path d="M182.5 34.4908 184.9 32.4914 194.5 32.4914 192.1 34.4908Z" stroke="#D3C674" stroke-width="0.667335" stroke-miterlimit="8" fill="#FFE6CC" fill-rule="evenodd"/><path d="M200.5 34.4908 202.9 32.4914 212.5 32.4914 210.1 34.4908Z" stroke="#D3C674" stroke-width="0.667335" stroke-miterlimit="8" fill="#FFE6CC" fill-rule="evenodd"/><path d="M218.5 34.4908 220.9 32.4914 230.5 32.4914 228.1 34.4908Z" stroke="#D3C674" stroke-width="0.667335" stroke-miterlimit="8" fill="#FFE6CC" fill-rule="evenodd"/><path d="M236.5 35.4905 238.9 32.4914 248.5 32.4914 246.1 35.4905Z" stroke="#D3C674" stroke-width="0.667335" stroke-miterlimit="8" fill="#FFE6CC" fill-rule="evenodd"/><path d="M188.5 28.4924 190.9 26.4929 200.5 26.4929 198.1 28.4924Z" stroke="#D3C674" stroke-width="0.667335" stroke-miterlimit="8" fill="#FFE6CC" fill-rule="evenodd"/><path d="M206.5 28.4924 208.9 26.4929 218.5 26.4929 216.1 28.4924Z" stroke="#D3C674" stroke-width="0.667335" stroke-miterlimit="8" fill="#FFE6CC" fill-rule="evenodd"/><path d="M224.5 28.4924 226.9 26.4929 236.5 26.4929 234.1 28.4924Z" stroke="#D3C674" stroke-width="0.667335" stroke-miterlimit="8" fill="#FFE6CC" fill-rule="evenodd"/><path d="M242.5 28.4924 244.9 26.4929 254.5 26.4929 252.1 28.4924Z" stroke="#D3C674" stroke-width="0.667335" stroke-miterlimit="8" fill="#FFE6CC" fill-rule="evenodd"/><text font-family="Cambria Math,Cambria Math_MSFontService,sans-serif" font-weight="400" font-size="13" transform="matrix(1 0 0 0.999733 84.3295 25)">ğ‘§</text><text font-family="Cambria Math,Cambria Math_MSFontService,sans-serif" font-weight="400" font-size="13" transform="matrix(1 0 0 0.999733 9.88118 206)">ğ‘¥</text><text font-family="Cambria Math,Cambria Math_MSFontService,sans-serif" font-weight="400" font-size="13" transform="matrix(1 0 0 0.999733 294.12 125)">ğ‘¦</text><text font-family="Calibri,Calibri_MSFontService,sans-serif" font-weight="400" font-size="13" transform="matrix(1 0 0 0.999733 93.1178 165)">Blockage</text><text font-family="Calibri,Calibri_MSFontService,sans-serif" font-weight="400" font-size="13" transform="matrix(1 0 0 0.999733 266.995 161)">Illuminated</text><text font-family="Calibri,Calibri_MSFontService,sans-serif" font-weight="400" font-size="13" transform="matrix(1 0 0 0.999733 285.761 177)">area</text><path d="M76.0841 86.4268C77.7387 83.9777 83.699 79.1401 88.7047 75.4447 93.7104 71.7493 100.696 66.9947 106.118 64.2545 111.54 61.5143 117.238 59.5598 121.236 59.0034 125.235 58.4469 130.87 58.1464 130.11 60.9156 129.349 63.6848 125.23 70.7479 116.675 75.6185 108.119 80.4891 85.6142 88.2626 78.7769 90.1389 71.9396 92.0152 74.4295 88.8758 76.0841 86.4268Z" stroke="#172C51" stroke-width="0.667204" stroke-miterlimit="8" stroke-opacity="0.85098" fill="#FFEAA8" fill-rule="evenodd" fill-opacity="0.85098"/><path d="M0 0 24.4989 125.636" stroke="#000000" stroke-width="1.33431" stroke-miterlimit="8" stroke-dasharray="5.33725 4.00294" fill="none" fill-rule="evenodd" transform="matrix(-1.00027 0 0 1 180.005 44.4881)"/><path d="M237.5 44.4881 264.058 170.125" stroke="#000000" stroke-width="1.33467" stroke-miterlimit="8" stroke-dasharray="5.33868 4.00401" fill="none" fill-rule="evenodd"/><path d="M51.5 111.47 51.5001 153.325" stroke="#000000" stroke-width="1.001" stroke-miterlimit="8" fill="none" fill-rule="evenodd"/><rect x="167" y="122.967" width="78" height="25.993" fill="#FFFFFF" fill-opacity="0.701961"/><text font-family="Cambria Math,Cambria Math_MSFontService,sans-serif" font-weight="400" font-size="13" transform="matrix(1 0 0 0.999733 176.704 140)">Waypoint</text><text font-family="Cambria Math,Cambria Math_MSFontService,sans-serif" font-weight="400" font-size="13" transform="matrix(1 0 0 0.999733 232.26 140)"></text><text font-family="Cambria Math,Cambria Math_MSFontService,sans-serif" font-weight="400" font-size="13" transform="matrix(1 0 0 0.999733 235.263 140)">1</text><path d="M201.649 166.127 197.218 163.15 197.962 162.043 202.393 165.02ZM193.894 160.918 189.463 157.941 190.208 156.833 194.639 159.81ZM187.658 159.139 182.5 152.459 190.635 154.71Z"/><path d="M0.601708-0.288175 2.90711 4.52549 1.70369 5.10184-0.601708 0.288175ZM4.63616 8.13574 6.94156 12.9494 5.73814 13.5258 3.43274 8.71209ZM8.67061 16.5597 10.976 21.3733 9.77259 21.9497 7.46719 17.136ZM12.5693 20.0666 13.6206 28.4398 7.75567 22.372Z" transform="matrix(-1.00027 0 0 1 182.124 150.46)"/><rect x="79" y="171.954" width="82" height="25.993" fill="#FFFFFF" fill-opacity="0.701961"/><text font-family="Cambria Math,Cambria Math_MSFontService,sans-serif" font-weight="400" font-size="13" transform="matrix(1 0 0 0.999733 88.6568 190)">Waypoint</text><text font-family="Cambria Math,Cambria Math_MSFontService,sans-serif" font-weight="400" font-size="13" transform="matrix(1 0 0 0.999733 144.212 190)"></text><text font-family="Cambria Math,Cambria Math_MSFontService,sans-serif" font-weight="400" font-size="13" transform="matrix(1 0 0 0.999733 147.215 190)">2</text><path d="M168.724 179.823 173.753 181.616 173.304 182.873 168.276 181.08ZM177.524 182.96 182.553 184.753 182.104 186.01 177.076 184.217ZM186.324 186.097 191.353 187.89 190.904 189.147 185.876 187.354ZM195.124 189.234 200.153 191.027 199.704 192.284 194.676 190.491ZM203.924 192.371 208.953 194.164 208.505 195.42 203.476 193.628ZM212.724 195.508 217.753 197.301 217.305 198.557 212.276 196.765ZM221.524 198.645 226.553 200.437 226.105 201.694 221.076 199.902ZM230.324 201.782 235.353 203.574 234.905 204.831 229.876 203.039ZM239.124 204.919 244.153 206.711 243.705 207.968 238.676 206.176ZM247.924 208.056 252.953 209.848 252.505 211.105 247.476 209.312ZM256.724 211.193 258.032 211.659 257.584 212.916 256.276 212.449ZM257.447 209.325 264.094 214.528 255.654 214.353Z"/><text fill="#C00000" font-family="Cambria Math,Cambria Math_MSFontService,sans-serif" font-weight="400" font-size="13" transform="matrix(1 0 0 0.999733 266.204 221)">Waypoint</text><text fill="#C00000" font-family="Cambria Math,Cambria Math_MSFontService,sans-serif" font-weight="400" font-size="13" transform="matrix(1 0 0 0.999733 321.76 221)"></text><text fill="#C00000" font-family="Cambria Math,Cambria Math_MSFontService,sans-serif" font-weight="400" font-size="13" transform="matrix(1 0 0 0.999733 324.763 221)">3</text></g></svg>