<svg width="333" height="250" xmlns="http://www.w3.org/2000/svg" xmlns:xlink="http://www.w3.org/1999/xlink" overflow="hidden"><defs><clipPath id="clip0"><rect x="0" y="0" width="333" height="250"/></clipPath></defs><g clip-path="url(#clip0)"><rect x="0" y="0" width="333" height="250.083" fill="#FFFFFF"/><path d="M1.49998 84.8896C1.49998 79.7178 5.69118 75.5252 10.8613 75.5252L323.139 75.5252C328.309 75.5252 332.5 79.7178 332.5 84.8896L332.5 240.219C332.5 245.39 328.309 249.583 323.139 249.583L10.8613 249.583C5.69118 249.583 1.49998 245.39 1.49998 240.219Z" stroke="#2E75B6" stroke-width="0.667335" stroke-miterlimit="8" fill="#DEEBF7" fill-rule="evenodd"/><path d="M92.5 171.391C92.5 168.168 95.1118 165.555 98.3335 165.555L165.667 165.555C168.888 165.555 171.5 168.168 171.5 171.391L171.5 194.731C171.5 197.954 168.888 200.567 165.667 200.567L98.3335 200.567C95.1118 200.567 92.5 197.954 92.5 194.731Z" stroke="#2E75B6" stroke-width="0.667335" stroke-miterlimit="8" fill="#9DC3E6" fill-rule="evenodd"/><path d="M0.500028 9.83681C0.500028 4.68034 4.67878 0.500194 9.83354 0.500194L102.166 0.500194C107.321 0.500194 111.5 4.68034 111.5 9.83681L111.5 47.1821C111.5 52.3386 107.321 56.5187 102.166 56.5187L9.83354 56.5187C4.67878 56.5187 0.500028 52.3386 0.500028 47.1821Z" stroke="#C55A11" stroke-width="0.667335" stroke-miterlimit="8" fill="#FBE5D6" fill-rule="evenodd"/><text font-family="Calibri,Calibri_MSFontService,sans-serif" font-weight="400" font-size="11" transform="matrix(1 0 0 1.00033 50.4967 22)">Packet</text><text font-family="Calibri,Calibri_MSFontService,sans-serif" font-weight="400" font-size="11" transform="matrix(1 0 0 1.00033 50.4967 35)">Waveform</text><text font-family="Calibri,Calibri_MSFontService,sans-serif" font-weight="400" font-size="11" transform="matrix(1 0 0 1.00033 50.4967 48)">Generator</text><path d="M45.5 14.3383C45.5 10.563 48.5595 7.5025 52.3335 7.5025L100.667 7.5025C104.441 7.5025 107.5 10.563 107.5 14.3383L107.5 41.6804C107.5 45.4557 104.441 48.5161 100.667 48.5161L52.3335 48.5161C48.5595 48.5161 45.5 45.4557 45.5 41.6804Z" stroke="#C55A11" stroke-width="0.667335" stroke-miterlimit="8" fill="#F8CBAD" fill-rule="evenodd"/><text font-family="Calibri,Calibri_MSFontService,sans-serif" font-weight="400" font-size="11" transform="matrix(1 0 0 1.00033 52.4638 18)">Packet</text><text font-family="Calibri,Calibri_MSFontService,sans-serif" font-weight="400" font-size="11" transform="matrix(1 0 0 1.00033 52.4638 31)">Waveform</text><text font-family="Calibri,Calibri_MSFontService,sans-serif" font-weight="400" font-size="11" transform="matrix(1 0 0 1.00033 52.4638 44)">Generator</text><text font-family="Calibri,Calibri_MSFontService,sans-serif" font-weight="400" font-size="11" transform="matrix(1 0 0 1.00033 4.53861 31)">PSDU</text><path d="M31.5 27.1753 38.9499 27.1754 38.9499 27.843 31.5 27.8429ZM37.6152 24.8389 45.6232 27.5092 37.6152 30.1794Z"/><path d="M133.5 9.83678C133.5 4.68032 137.679 0.500194 142.833 0.500194L211.167 0.500194C216.321 0.500194 220.5 4.68032 220.5 9.83678L220.5 47.1822C220.5 52.3387 216.321 56.5188 211.167 56.5188L142.833 56.5188C137.679 56.5188 133.5 52.3387 133.5 47.1822Z" stroke="#548235" stroke-width="0.667335" stroke-miterlimit="8" fill="#E2F0D9" fill-rule="evenodd"/><text font-family="Calibri,Calibri_MSFontService,sans-serif" font-weight="400" font-size="11" transform="matrix(1 0 0 1.00033 139.606 31)">IRS</text><text font-family="Calibri,Calibri_MSFontService,sans-serif" font-weight="400" font-size="11" transform="matrix(1 0 0 1.00033 152.952 31)">-</text><text font-family="Calibri,Calibri_MSFontService,sans-serif" font-weight="400" font-size="11" transform="matrix(1 0 0 1.00033 156.289 31)">assisted Link</text><path d="M111.5 27.1753 126.952 27.1754 126.952 27.843 111.5 27.8429ZM125.618 24.839 133.626 27.5092 125.618 30.1794Z"/><path d="M219.505 27.1754 238.968 27.4813 238.958 28.1487 219.495 27.8429ZM237.67 25.1241 245.635 27.9199 237.586 30.4639Z"/><path d="M245.5 9.83678C245.5 4.68032 249.679 0.500194 254.833 0.500194L323.167 0.500194C328.321 0.500194 332.5 4.68032 332.5 9.83678L332.5 47.1822C332.5 52.3387 328.321 56.5188 323.167 56.5188L254.833 56.5188C249.679 56.5188 245.5 52.3387 245.5 47.1822Z" stroke="#2E75B6" stroke-width="0.667335" stroke-miterlimit="8" fill="#DEEBF7" fill-rule="evenodd"/><text font-family="Calibri,Calibri_MSFontService,sans-serif" font-weight="400" font-size="11" transform="matrix(1 0 0 1.00033 270.347 29)">Receiver</text><path d="M3.49999 103.701C3.49999 98.6369 7.60411 94.5314 12.6668 94.5314L68.3332 94.5314C73.3959 94.5314 77.5 98.6369 77.5 103.701L77.5 140.38C77.5 145.444 73.3959 149.55 68.3332 149.55L12.6668 149.55C7.60411 149.55 3.49999 145.444 3.49999 140.38Z" stroke="#2E75B6" stroke-width="0.667335" stroke-miterlimit="8" fill="#9DC3E6" fill-rule="evenodd"/><text font-family="Calibri,Calibri_MSFontService,sans-serif" font-weight="400" font-size="11" transform="matrix(1 0 0 1.00033 9.08784 104)">Packet Detect</text><text font-family="Calibri,Calibri_MSFontService,sans-serif" font-weight="400" font-size="11" transform="matrix(1 0 0 1.00033 9.08784 117)">&amp; Coarse</text><text font-family="Calibri,Calibri_MSFontService,sans-serif" font-weight="400" font-size="11" transform="matrix(1 0 0 1.00033 9.08784 130)">Frequency</text><text font-family="Calibri,Calibri_MSFontService,sans-serif" font-weight="400" font-size="11" transform="matrix(1 0 0 1.00033 9.08784 142)">Correction</text><path d="M92.5 103.701C92.5 98.6369 96.6042 94.5314 101.667 94.5314L162.333 94.5314C167.396 94.5314 171.5 98.6369 171.5 103.701L171.5 140.38C171.5 145.444 167.396 149.55 162.333 149.55L101.667 149.55C96.6042 149.55 92.5 145.444 92.5 140.38Z" stroke="#2E75B6" stroke-width="0.667335" stroke-miterlimit="8" fill="#9DC3E6" fill-rule="evenodd"/><text font-family="Calibri,Calibri_MSFontService,sans-serif" font-weight="400" font-size="11" transform="matrix(1 0 0 1.00033 97.1529 106)">Timing</text><text font-family="Calibri,Calibri_MSFontService,sans-serif" font-weight="400" font-size="11" transform="matrix(1 0 0 1.00033 97.1529 119)">Synchronization</text><text font-family="Calibri,Calibri_MSFontService,sans-serif" font-weight="400" font-size="11" transform="matrix(1 0 0 1.00033 97.1529 132)">&amp; Channel</text><text font-family="Calibri,Calibri_MSFontService,sans-serif" font-weight="400" font-size="11" transform="matrix(1 0 0 1.00033 97.1529 144)">Estimation</text><path d="M184.5 103.701C184.5 98.6369 188.604 94.5314 193.667 94.5314L235.333 94.5314C240.396 94.5314 244.5 98.6369 244.5 103.701L244.5 140.38C244.5 145.444 240.396 149.55 235.333 149.55L193.667 149.55C188.604 149.55 184.5 145.444 184.5 140.38Z" stroke="#2E75B6" stroke-width="0.667335" stroke-miterlimit="8" fill="#9DC3E6" fill-rule="evenodd"/><text font-family="Calibri,Calibri_MSFontService,sans-serif" font-weight="400" font-size="11" transform="matrix(1 0 0 1.00033 193.945 117)">Noise</text><text font-family="Calibri,Calibri_MSFontService,sans-serif" font-weight="400" font-size="11" transform="matrix(1 0 0 1.00033 193.945 130)">Estimation</text><text font-family="Calibri,Calibri_MSFontService,sans-serif" font-weight="400" font-size="11" transform="matrix(1 0 0 1.00033 101.454 179)">Extract Data</text><text font-family="Calibri,Calibri_MSFontService,sans-serif" font-weight="400" font-size="11" transform="matrix(1 0 0 1.00033 101.454 192)">Fields</text><path d="M185.5 171.39C185.5 168.168 188.112 165.555 191.333 165.555L238.667 165.555C241.888 165.555 244.5 168.168 244.5 171.39L244.5 194.731C244.5 197.954 241.888 200.567 238.667 200.567L191.333 200.567C188.112 200.567 185.5 197.954 185.5 194.731Z" stroke="#2E75B6" stroke-width="0.667335" stroke-miterlimit="8" fill="#9DC3E6" fill-rule="evenodd"/><text font-family="Calibri,Calibri_MSFontService,sans-serif" font-weight="400" font-size="11" transform="matrix(1 0 0 1.00033 193.386 179)">Equalize</text><text font-family="Calibri,Calibri_MSFontService,sans-serif" font-weight="400" font-size="11" transform="matrix(1 0 0 1.00033 193.386 192)">Data</text><path d="M258.5 170.39C258.5 167.167 261.112 164.555 264.333 164.555L324.667 164.555C327.888 164.555 330.5 167.167 330.5 170.39L330.5 193.731C330.5 196.954 327.888 199.566 324.667 199.566L264.333 199.566C261.112 199.566 258.5 196.954 258.5 193.731Z" stroke="#2E75B6" stroke-width="0.667335" stroke-miterlimit="8" fill="#9DC3E6" fill-rule="evenodd"/><text font-family="Calibri,Calibri_MSFontService,sans-serif" font-weight="400" font-size="11" transform="matrix(1 0 0 1.00033 262.244 179)">Phase Tracking</text><text font-family="Calibri,Calibri_MSFontService,sans-serif" font-weight="400" font-size="11" transform="matrix(1 0 0 1.00033 262.244 192)">&amp; Correction</text><path d="M258.5 217.573C258.5 214.258 261.186 211.57 264.5 211.57L324.5 211.57C327.814 211.57 330.5 214.258 330.5 217.573L330.5 241.58C330.5 244.895 327.814 247.582 324.5 247.582L264.5 247.582C261.186 247.582 258.5 244.895 258.5 241.58Z" stroke="#2E75B6" stroke-width="0.667335" stroke-miterlimit="8" fill="#9DC3E6" fill-rule="evenodd"/><text font-family="Calibri,Calibri_MSFontService,sans-serif" font-weight="400" font-size="11" transform="matrix(1 0 0 1.00033 276.042 226)">Data Bit</text><text font-family="Calibri,Calibri_MSFontService,sans-serif" font-weight="400" font-size="11" transform="matrix(1 0 0 1.00033 276.042 239)">Recover</text><path d="M77.5 120.206 84.9499 120.206 84.9499 120.874 77.5 120.874ZM83.6153 117.87 91.6233 120.54 83.6152 123.21Z"/><path d="M171.5 119.206 178.95 119.206 178.95 119.874 171.5 119.874ZM177.615 116.87 185.623 119.54 177.615 122.21Z"/><path d="M171.5 181.227 178.95 181.227 178.95 181.894 171.5 181.894ZM177.615 178.89 185.623 181.561 177.615 184.231Z"/><path d="M129.834 151.55 129.834 159.003 129.166 159.003 129.166 151.55ZM132.169 157.668 129.5 165.678 126.831 157.668Z"/><path d="M214.834 150.55 214.834 158.002 214.166 158.002 214.166 150.55ZM217.169 156.667 214.5 164.678 211.831 156.667Z"/><path d="M244.5 122.207 294.057 122.207 294.057 158.31 293.39 158.31 293.39 122.541 293.724 122.875 244.5 122.875ZM296.393 156.975 293.724 164.986 291.054 156.975Z"/><path d="M244.5 181.227 251.95 181.227 251.95 181.894 244.5 181.894ZM250.615 178.89 258.623 181.561 250.615 184.231Z"/><path d="M294.834 199.566 294.834 207.019 294.166 207.019 294.166 199.566ZM297.169 205.684 294.5 213.694 291.831 205.684Z"/><text font-family="Calibri,Calibri_MSFontService,sans-serif" font-weight="400" font-size="11" transform="matrix(1 0 0 1.00033 10.121 86)">Receiver</text><path d="M2.48285e-06-0.333667 7.44987-0.333612 7.44987 0.333723-2.48285e-06 0.333667ZM6.11522-2.66929 14.1232 0.000105092 6.11518 2.66938Z" transform="matrix(-1 0 0 1.00033 257.623 229.576)"/><text font-family="Calibri,Calibri_MSFontService,sans-serif" font-weight="400" font-size="11" transform="matrix(1 0 0 1.00033 216.122 232)">PSDU</text></g></svg>